<?xml version="1.0" encoding="utf-8"?>
<!-- Generator: Adobe Illustrator 24.1.2, SVG Export Plug-In . SVG Version: 6.00 Build 0)  -->
<svg version="1.1" id="레이어_1" xmlns="http://www.w3.org/2000/svg" xmlns:xlink="http://www.w3.org/1999/xlink" x="0px"
	 y="0px" viewBox="0 0 1024 1024" style="enable-background:new 0 0 1024 1024;" xml:space="preserve">
<style type="text/css">
	.st0{fill-rule:evenodd;clip-rule:evenodd;fill:#13ABCF;}
	.st1{fill-rule:evenodd;clip-rule:evenodd;fill:#EF4456;}
	.st2{fill-rule:evenodd;clip-rule:evenodd;fill:#F5B938;}
	.st3{fill-rule:evenodd;clip-rule:evenodd;fill:#8C5CA6;}
	.st4{fill-rule:evenodd;clip-rule:evenodd;fill:#171C2D;}
</style>
<g>
	<path class="st0" d="M139.7,58.8l161.4,245.4c0,0-137.5,138.6-69.3,309.6l-117,79.5c0,0-103.4-189.5,21-402.5L139.7,58.8
		L139.7,58.8z"/>
	<path class="st1" d="M330,113.6l80.1,119.3c0,0,175.6-66.5,305.1,68.2l248.8-160.2H735.7C735.7,140.9,565.3,14.8,330,113.6
		L330,113.6z"/>
	<path class="st2" d="M790.2,410.2l124.4-80.1c0,0,93.7,209.6-23.9,402.2l-1.7,228.4L723.8,717C723.8,717,851.6,611.3,790.2,410.2
		L790.2,410.2z"/>
	<path class="st3" d="M613,795.4c0,0-167,75-305.1-69.9L60.7,887.4l230.1,1.7c0,0,167,117.6,398.8,22.2L613,795.4L613,795.4z"/>
	<path class="st4" d="M518.8,394.9c65.6,0,118.9,53.3,118.9,118.9s-53.3,118.9-118.9,118.9c-65.6,0-118.9-53.3-118.9-118.9
		S453.2,394.9,518.8,394.9L518.8,394.9z"/>
</g>
</svg>
