<svg id="Layer_1" data-name="Layer 1" xmlns="http://www.w3.org/2000/svg" xmlns:xlink="http://www.w3.org/1999/xlink" viewBox="0 0 510.61 155.83"><defs><style>.cls-1{fill:url(#linear-gradient);}.cls-2{fill:#231f20;}.cls-3{clip-path:url(#clip-path);}.cls-4{fill:url(#linear-gradient-3);}.cls-5{fill:url(#linear-gradient-4);}.cls-6{fill:url(#linear-gradient-5);}.cls-7{fill:url(#linear-gradient-6);}.cls-8{fill:url(#linear-gradient-7);}.cls-9{fill:url(#linear-gradient-8);}.cls-10{fill:url(#linear-gradient-9);}.cls-11{fill:url(#linear-gradient-10);}.cls-12{fill:url(#linear-gradient-11);}</style><linearGradient id="linear-gradient" x1="298.96" y1="38.41" x2="340.59" y2="38.41" gradientUnits="userSpaceOnUse"><stop offset="0" stop-color="#009345"/><stop offset="1" stop-color="#b2d235"/></linearGradient><clipPath id="clip-path"><path class="cls-1" d="M340.59,38.87A40.49,40.49,0,0,0,320,3.58c4,14.85-47,55.52-3.09,69.67-.08-.15-.16-.3-.23-.45l0-.07c-.07-.13-.13-.26-.19-.39l-.06-.12c-.07-.13-.13-.26-.19-.39l-.05-.11-.18-.39,0-.11c-.05-.13-.11-.25-.16-.38l-.05-.12-.15-.37-.05-.13-.14-.35-.05-.15c0-.12-.09-.24-.13-.35l0-.11-.12-.38,0-.11-.12-.38,0-.08-.12-.4,0-.07a23,23,0,0,1-.65-3.13v-.06c0-.12,0-.25-.05-.37v-.09c0-.12,0-.24,0-.35v-.12l0-.34v-.11c0-.11,0-.22,0-.34v-.12c0-.11,0-.21,0-.32v-.14c0-.1,0-.21,0-.31v-.56c0-.11,0-.23,0-.34V61c0-.11,0-.21,0-.32v-.12c0-.11,0-.22,0-.33v-.07c0-.68.11-1.35.2-2v-.08c0-.11,0-.21.05-.32v-.11l.05-.28,0-.16.05-.29,0-.12.06-.31,0-.13.06-.3,0-.11.06-.29,0-.15.06-.29,0-.12.07-.28.05-.17.06-.25.05-.16L315,54l0-.16.08-.27,0-.1.09-.32h0l.12-.37v0l.12-.39h0l.14-.4v0l.13-.39h0l.09-.26.06-.16.09-.27.05-.13.08-.23.07-.2.08-.22.06-.17.1-.26,0-.09.07-.16,0-.09.1-.27,0-.06.07-.21.09-.21.07-.18.09-.24.06-.15.1-.27.06-.13.11-.29,0-.1.13-.31,0-.08.13-.34,0,0,.15-.36v0l.16-.39c2.2-5.45,4.34-10.75,3.21-16.12.11.13.22.26.32.4s.2.28.29.43c5.3,8.63-10.06,28.39-.94,41.49.3.4.62.79,1,1.18l0,0,0,0a40.46,40.46,0,0,0,18.75-34.17"/></clipPath><linearGradient id="linear-gradient-3" x1="306.8" y1="73.25" x2="306.8" y2="3.58" xlink:href="#linear-gradient"/><linearGradient id="linear-gradient-4" x1="-66.15" y1="16.19" x2="159.79" y2="16.19" gradientUnits="userSpaceOnUse"><stop offset="0" stop-color="#045304"/><stop offset="1" stop-color="#b0f122"/></linearGradient><linearGradient id="linear-gradient-5" x1="-66.15" y1="32.49" x2="159.79" y2="32.49" xlink:href="#linear-gradient-4"/><linearGradient id="linear-gradient-6" x1="-66.15" y1="45.88" x2="159.79" y2="45.88" xlink:href="#linear-gradient-4"/><linearGradient id="linear-gradient-7" x1="-66.15" y1="59.28" x2="159.79" y2="59.28" xlink:href="#linear-gradient-4"/><linearGradient id="linear-gradient-8" x1="-66.15" y1="76.16" x2="159.79" y2="76.16" xlink:href="#linear-gradient-4"/><linearGradient id="linear-gradient-9" x1="-66.15" y1="91.89" x2="159.79" y2="91.89" xlink:href="#linear-gradient-4"/><linearGradient id="linear-gradient-10" x1="-66.15" y1="120.42" x2="159.79" y2="120.42" xlink:href="#linear-gradient-4"/><linearGradient id="linear-gradient-11" x1="-66.15" y1="142.55" x2="159.79" y2="142.55" xlink:href="#linear-gradient-4"/></defs><path class="cls-2" d="M214.2,15.68h10.67l-10,56.59H204.22ZM209.89,62H244l-1.81,10.27H208.08Zm4.05-23h29.78L241.9,49.31H212.13Zm4.12-23.35h34.06L250.3,26H216.24Z"/><path class="cls-2" d="M260.45,70.38a12.74,12.74,0,0,1-5.73-7.2,23.18,23.18,0,0,1-.4-11.42l2.74-15.53a28.78,28.78,0,0,1,4.42-11.43,21.54,21.54,0,0,1,8.28-7.22,25.62,25.62,0,0,1,11.5-2.49,17.34,17.34,0,0,1,9.13,2.3,14.6,14.6,0,0,1,5.77,6.67,25.27,25.27,0,0,1,1.93,10.57H287A12.34,12.34,0,0,0,286,29.84a7.14,7.14,0,0,0-2.61-3,7.27,7.27,0,0,0-4-1A11.31,11.31,0,0,0,274.06,27a10.19,10.19,0,0,0-3.84,3.58,15.18,15.18,0,0,0-2.11,5.67l-2.74,15.53a12.37,12.37,0,0,0,.11,5.64A6.18,6.18,0,0,0,268.07,61,8.78,8.78,0,0,0,273,62.19a9.61,9.61,0,0,0,4.39-1,11.46,11.46,0,0,0,3.68-3,17,17,0,0,0,2.72-4.82H294.8a35.9,35.9,0,0,1-5.7,10.56A24.41,24.41,0,0,1,281,70.56a21.86,21.86,0,0,1-9.92,2.3A20.51,20.51,0,0,1,260.45,70.38Z"/><path class="cls-2" d="M354,15.64h10.66l-10,56.63H344Zm.08,23.59h19.7a5.9,5.9,0,0,0,3-.82,6.89,6.89,0,0,0,2.34-2.34,10.33,10.33,0,0,0,1.34-3.5,8,8,0,0,0-.07-3.5,4.15,4.15,0,0,0-1.51-2.34,4.58,4.58,0,0,0-2.78-.82H356.42l1.81-10.27h20.55a13.87,13.87,0,0,1,7.84,2.1,11,11,0,0,1,4.44,5.93,18,18,0,0,1,.38,8.9,22.31,22.31,0,0,1-3.51,8.89,18.32,18.32,0,0,1-6.55,5.94,17.94,17.94,0,0,1-8.57,2.1H352.26Zm10.41,8.52L376.2,46l10.62,26.31H373.89Z"/><path class="cls-2" d="M403.42,70.38a12.74,12.74,0,0,1-5.78-7.2,23.27,23.27,0,0,1-.4-11.38l6.37-36.12h10.66l-6.41,36.39c-.58,3.24-.15,5.76,1.27,7.55s3.72,2.69,6.89,2.69a11.59,11.59,0,0,0,7.88-2.69,12.45,12.45,0,0,0,4-7.55l6.42-36.39H445L438.58,51.8a28.69,28.69,0,0,1-4.44,11.38,21.26,21.26,0,0,1-8.36,7.2,26.26,26.26,0,0,1-11.63,2.48A20.91,20.91,0,0,1,403.42,70.38Z"/><path class="cls-2" d="M455.84,15.68h13.05L482.3,59l-1.12,1L489,15.68h10.2l-10,56.55H476.12l-13.45-42.7,1.11-1-7.71,43.71h-10.2Z"/><path class="cls-2" d="M200.11,95.61h10.66l-10,56.64H190.12Zm.08,23.59h19.7a5.81,5.81,0,0,0,3-.82,6.77,6.77,0,0,0,2.34-2.33,10.31,10.31,0,0,0,1.34-3.51,8,8,0,0,0-.07-3.5,4.12,4.12,0,0,0-1.51-2.33,4.5,4.5,0,0,0-2.78-.82H202.54l1.81-10.28H224.9a13.87,13.87,0,0,1,7.84,2.1,11.08,11.08,0,0,1,4.45,5.94,18.13,18.13,0,0,1,.37,8.89,22.35,22.35,0,0,1-3.51,8.9,18.45,18.45,0,0,1-6.56,5.94,17.87,17.87,0,0,1-8.56,2.1H198.38Zm10.41,8.53,11.72-1.8,10.62,26.32H220Z"/><path class="cls-2" d="M252.06,95.65h10.67l-10,56.6H242.08ZM247.75,142h34.06L280,152.25H245.94Zm4.05-23h29.78l-1.81,10.27H250Zm4.12-23.36H290l-1.82,10.28H254.11Z"/><path class="cls-2" d="M323,95.65h8.56l4.16,37.76,13.94-37.76h11l-23,56.6H327.52l-3.06-39.55L307,152.25h-10l-3.06-56.6h11l.62,37.76Z"/><path class="cls-2" d="M379.89,95.65h6.77l11.67,56.6H386.84l-6.73-38.65-20.36,38.65H348.27ZM362.07,132.9h29.78L390,143.18H360.26Z"/><path class="cls-2" d="M415.32,95.61H426l-10,56.64H405.33Zm.08,23.59h19.7a5.78,5.78,0,0,0,3-.82,6.77,6.77,0,0,0,2.34-2.33,10.31,10.31,0,0,0,1.34-3.51,8.15,8.15,0,0,0-.06-3.5,4.13,4.13,0,0,0-1.52-2.33,4.49,4.49,0,0,0-2.77-.82h-19.7l1.81-10.28h20.55a13.93,13.93,0,0,1,7.85,2.1,11.11,11.11,0,0,1,4.44,5.94,18.24,18.24,0,0,1,.38,8.89,22.51,22.51,0,0,1-3.52,8.9,18.51,18.51,0,0,1-6.55,5.94,17.91,17.91,0,0,1-8.57,2.1H413.59Zm10.41,8.53,11.72-1.8,10.62,26.32H435.23Z"/><path class="cls-2" d="M467.28,95.65h10.66l-10,56.6H457.3ZM464.48,142h13.58a13.78,13.78,0,0,0,8.59-2.53,11.05,11.05,0,0,0,4.14-7.16l2.94-16.66q.81-4.64-1.62-7.16c-1.62-1.69-4.19-2.53-7.69-2.53H470.84l1.81-10.28H486A25.21,25.21,0,0,1,497.67,98a13.1,13.1,0,0,1,6.39,6.92,20.22,20.22,0,0,1,.67,11l-2.83,16a25.29,25.29,0,0,1-4.39,10.66,22.14,22.14,0,0,1-8.78,7.09A30.22,30.22,0,0,1,476,152.25H462.67Z"/><path class="cls-1" d="M340.59,38.87A40.49,40.49,0,0,0,320,3.58c4,14.85-47,55.52-3.09,69.67-.08-.15-.16-.3-.23-.45l0-.07c-.07-.13-.13-.26-.19-.39l-.06-.12c-.07-.13-.13-.26-.19-.39l-.05-.11-.18-.39,0-.11c-.05-.13-.11-.25-.16-.38l-.05-.12-.15-.37-.05-.13-.14-.35-.05-.15c0-.12-.09-.24-.13-.35l0-.11-.12-.38,0-.11-.12-.38,0-.08-.12-.4,0-.07a23,23,0,0,1-.65-3.13v-.06c0-.12,0-.25-.05-.37v-.09c0-.12,0-.24,0-.35v-.12l0-.34v-.11c0-.11,0-.22,0-.34v-.12c0-.11,0-.21,0-.32v-.14c0-.1,0-.21,0-.31v-.56c0-.11,0-.23,0-.34V61c0-.11,0-.21,0-.32v-.12c0-.11,0-.22,0-.33v-.07c0-.68.11-1.35.2-2v-.08c0-.11,0-.21.05-.32v-.11l.05-.28,0-.16.05-.29,0-.12.06-.31,0-.13.06-.3,0-.11.06-.29,0-.15.06-.29,0-.12.07-.28.05-.17.06-.25.05-.16L315,54l0-.16.08-.27,0-.1.09-.32h0l.12-.37v0l.12-.39h0l.14-.4v0l.13-.39h0l.09-.26.06-.16.09-.27.05-.13.08-.23.07-.2.08-.22.06-.17.1-.26,0-.09.07-.16,0-.09.1-.27,0-.06.07-.21.09-.21.07-.18.09-.24.06-.15.1-.27.06-.13.11-.29,0-.1.13-.31,0-.08.13-.34,0,0,.15-.36v0l.16-.39c2.2-5.45,4.34-10.75,3.21-16.12.11.13.22.26.32.4s.2.28.29.43c5.3,8.63-10.06,28.39-.94,41.49.3.4.62.79,1,1.18l0,0,0,0a40.46,40.46,0,0,0,18.75-34.17"/><g class="cls-3"><rect class="cls-4" x="273.01" y="3.58" width="67.58" height="69.66"/></g><path class="cls-5" d="M195.88,18.42H68.94a2.24,2.24,0,0,1,0-4.47H195.88a2.24,2.24,0,0,1,0,4.47Z"/><path class="cls-6" d="M202.87,34.72H137.65a2.23,2.23,0,0,1,0-4.46h65.22a2.23,2.23,0,0,1,0,4.46Z"/><path class="cls-7" d="M158.61,48.12H100.38a2.24,2.24,0,0,1,0-4.47h58.23a2.24,2.24,0,1,1,0,4.47Z"/><path class="cls-8" d="M114.94,61.51H8.38a2.23,2.23,0,1,1,0-4.46H114.94a2.23,2.23,0,1,1,0,4.46Z"/><path class="cls-9" d="M181.91,78.4H98.64a2.24,2.24,0,1,1,0-4.47h83.27a2.24,2.24,0,0,1,0,4.47Z"/><path class="cls-10" d="M159.78,94.12H70.69a2.24,2.24,0,1,1,0-4.47h89.09a2.24,2.24,0,0,1,0,4.47Z"/><path class="cls-11" d="M181.32,122.65H126.59a2.23,2.23,0,1,1,0-4.46h54.73a2.23,2.23,0,1,1,0,4.46Z"/><path class="cls-12" d="M159.78,144.78h-124a2.23,2.23,0,0,1,0-4.46h124a2.23,2.23,0,0,1,0,4.46Z"/></svg>